<svg aria-hidden="true" style="position: absolute; width: 0; height: 0; overflow: hidden;" version="1.1" xmlns="http://www.w3.org/2000/svg" xmlns:xlink="http://www.w3.org/1999/xlink">
<defs>
<symbol id="icon-email-black-18dp-1" viewBox="0 0 32 32">
<path d="M26.667 5.333h-21.333c-1.467 0-2.653 1.2-2.653 2.667l-0.013 16c0 1.467 1.2 2.667 2.667 2.667h21.333c1.467 0 2.667-1.2 2.667-2.667v-16c0-1.467-1.2-2.667-2.667-2.667zM26.133 11l-9.427 5.893c-0.427 0.267-0.987 0.267-1.413 0l-9.427-5.893c-0.333-0.213-0.533-0.573-0.533-0.96 0-0.893 0.973-1.427 1.733-0.96l8.933 5.587 8.933-5.587c0.76-0.467 1.733 0.067 1.733 0.96 0 0.387-0.2 0.747-0.533 0.96z"></path>
</symbol>
<symbol id="icon-person-black-18dp-1" viewBox="0 0 32 32">
<path d="M16 16c2.947 0 5.333-2.387 5.333-5.333s-2.387-5.333-5.333-5.333c-2.947 0-5.333 2.387-5.333 5.333s2.387 5.333 5.333 5.333zM16 18.667c-3.56 0-10.667 1.787-10.667 5.333v1.333c0 0.733 0.6 1.333 1.333 1.333h18.667c0.733 0 1.333-0.6 1.333-1.333v-1.333c0-3.547-7.107-5.333-10.667-5.333z"></path>
</symbol>
<symbol id="icon-phone-black-18dp-1" viewBox="0 0 32 32">
<path d="M24.882 19.773l-3.268-0.373c-0.785-0.090-1.557 0.18-2.11 0.733l-2.367 2.367c-3.641-1.853-6.626-4.825-8.478-8.478l2.38-2.38c0.553-0.553 0.823-1.325 0.733-2.11l-0.373-3.242c-0.154-1.299-1.248-2.277-2.56-2.277h-2.226c-1.454 0-2.663 1.209-2.573 2.663 0.682 10.987 9.469 19.761 20.443 20.443 1.454 0.090 2.663-1.119 2.663-2.573v-2.226c0.013-1.299-0.965-2.393-2.264-2.547z"></path>
</symbol>
<symbol id="icon-close" viewBox="0 0 32 32">
<path fill="#fff" style="fill: var(--color1, #fff)" d="M32 16c0 8.837-7.163 16-16 16s-16-7.163-16-16c0-8.837 7.163-16 16-16s16 7.163 16 16z"></path>
<path fill="none" stroke="#000" style="stroke: var(--color2, #000)" stroke-linejoin="miter" stroke-linecap="butt" stroke-miterlimit="4" stroke-width="1.0667" d="M31.467 16c0 8.542-6.925 15.467-15.467 15.467s-15.467-6.925-15.467-15.467c0-8.542 6.925-15.467 15.467-15.467s15.467 6.925 15.467 15.467z"></path>
<path  d="M22.4 10.782l-1.182-1.182-4.685 4.685-4.685-4.685-1.182 1.182 4.685 4.685-4.685 4.685 1.182 1.182 4.685-4.685 4.685 4.685 1.182-1.182-4.685-4.685 4.685-4.685z"></path>
</symbol>
<symbol id="icon-logo-4" viewBox="0 0 59 32">
<path fill="#afb1b8" style="fill: var(--color3, #afb1b8)" d="M19.529 12.905h-0.001c-0.834 0-1.51 0.601-1.51 1.342v0.001c0 0.741 0.676 1.342 1.51 1.342h0.001c0.834 0 1.51-0.601 1.51-1.342v-0.001c0-0.741-0.676-1.342-1.51-1.342z"></path>
<path fill="#afb1b8" style="fill: var(--color3, #afb1b8)" d="M30.677 12.476c-0.002-1.030-0.464-2.016-1.283-2.744s-1.929-1.138-3.088-1.141v0c-1.159 0.002-2.27 0.412-3.089 1.14s-1.281 1.715-1.283 2.745v5.678c0 0 8.742-0.865 8.743-5.677v-0.001z"></path>
<path fill="#afb1b8" style="fill: var(--color3, #afb1b8)" d="M14.957 20.017c0.002 0.716 0.323 1.403 0.893 1.91s1.342 0.792 2.148 0.794c0.806-0.002 1.578-0.288 2.148-0.794s0.891-1.193 0.893-1.909v-3.951c0 0-6.083 0.603-6.083 3.95zM17.998 20.725c-0.158 0-0.311-0.041-0.442-0.119s-0.233-0.188-0.293-0.318c-0.060-0.129-0.076-0.272-0.045-0.409s0.107-0.263 0.218-0.362c0.111-0.099 0.253-0.166 0.408-0.194s0.315-0.013 0.46 0.040c0.146 0.054 0.27 0.144 0.357 0.261s0.134 0.253 0.134 0.393c0 0.093-0.020 0.186-0.060 0.272s-0.098 0.165-0.172 0.23c-0.074 0.066-0.162 0.118-0.259 0.154s-0.201 0.054-0.305 0.054v-0.003z"></path>
<path fill="#afb1b8" style="fill: var(--color3, #afb1b8)" d="M23.558 19.458v1.484h-0.306v-1.484h0.306zM24.149 20.092v0.238h-0.675v-0.238h0.675zM24.221 19.458v0.239h-0.746v-0.239h0.746zM25.617 20.165v0.070c0 0.113-0.015 0.214-0.046 0.304s-0.074 0.166-0.129 0.229c-0.056 0.062-0.122 0.11-0.2 0.144s-0.162 0.050-0.256 0.050c-0.093 0-0.178-0.017-0.256-0.050s-0.143-0.081-0.2-0.144c-0.056-0.063-0.1-0.14-0.131-0.229s-0.046-0.191-0.046-0.304v-0.070c0-0.113 0.015-0.215 0.046-0.304s0.074-0.166 0.129-0.229c0.056-0.063 0.123-0.111 0.2-0.145s0.163-0.050 0.256-0.050c0.094 0 0.179 0.017 0.256 0.050s0.144 0.082 0.2 0.145c0.056 0.063 0.1 0.14 0.13 0.229s0.047 0.19 0.047 0.304zM25.308 20.235v-0.072c0-0.079-0.007-0.148-0.021-0.208s-0.035-0.11-0.063-0.151-0.062-0.071-0.102-0.092c-0.040-0.021-0.086-0.032-0.138-0.032s-0.097 0.011-0.138 0.032c-0.039 0.020-0.073 0.051-0.101 0.092s-0.048 0.091-0.062 0.151c-0.014 0.060-0.021 0.129-0.021 0.208v0.072c0 0.078 0.007 0.147 0.021 0.208s0.035 0.11 0.063 0.152c0.028 0.041 0.062 0.072 0.102 0.093s0.086 0.032 0.138 0.032c0.052 0 0.098-0.011 0.138-0.032s0.074-0.052 0.101-0.093c0.027-0.041 0.048-0.092 0.062-0.152s0.021-0.13 0.021-0.208zM26.609 20.553c0-0.026-0.004-0.050-0.012-0.071s-0.022-0.041-0.043-0.059c-0.021-0.018-0.051-0.036-0.089-0.054s-0.087-0.036-0.148-0.055c-0.067-0.022-0.131-0.046-0.192-0.073s-0.113-0.059-0.159-0.095c-0.046-0.037-0.082-0.079-0.108-0.127s-0.039-0.104-0.039-0.168c0-0.062 0.014-0.118 0.041-0.168s0.065-0.094 0.114-0.13c0.049-0.037 0.107-0.065 0.173-0.085s0.141-0.030 0.221-0.030c0.109 0 0.205 0.020 0.286 0.059s0.145 0.093 0.19 0.162c0.046 0.069 0.068 0.147 0.068 0.235h-0.304c0-0.043-0.009-0.082-0.027-0.114s-0.045-0.059-0.082-0.078c-0.036-0.019-0.081-0.029-0.137-0.029-0.053 0-0.097 0.008-0.133 0.024s-0.062 0.037-0.079 0.064c-0.018 0.026-0.026 0.056-0.026 0.090 0 0.025 0.006 0.048 0.018 0.068s0.032 0.039 0.057 0.057 0.056 0.034 0.093 0.050c0.037 0.016 0.079 0.031 0.127 0.046 0.081 0.024 0.152 0.052 0.213 0.083s0.113 0.065 0.155 0.103c0.041 0.038 0.073 0.081 0.094 0.129s0.032 0.103 0.032 0.164c0 0.065-0.013 0.122-0.038 0.173s-0.061 0.094-0.109 0.129c-0.048 0.035-0.104 0.062-0.17 0.081s-0.14 0.027-0.221 0.027c-0.073 0-0.146-0.009-0.217-0.029s-0.136-0.049-0.195-0.089c-0.058-0.039-0.104-0.090-0.139-0.151s-0.052-0.134-0.052-0.217h0.307c0 0.046 0.007 0.085 0.021 0.117s0.034 0.058 0.060 0.077c0.026 0.020 0.058 0.034 0.094 0.043s0.077 0.013 0.12 0.013c0.053 0 0.096-0.007 0.13-0.022s0.060-0.036 0.076-0.062c0.017-0.026 0.026-0.056 0.026-0.090zM27.786 19.458v1.484h-0.305v-1.484h0.305zM28.243 19.458v0.239h-1.211v-0.239h1.211zM29.413 20.703v0.238h-0.79v-0.238h0.79zM28.723 19.458v1.484h-0.306v-1.484h0.306zM29.31 20.062v0.232h-0.687v-0.232h0.687zM29.412 19.458v0.239h-0.789v-0.239h0.789zM29.591 19.458h0.553c0.113 0 0.211 0.017 0.292 0.051s0.145 0.084 0.19 0.151c0.044 0.067 0.066 0.148 0.066 0.246 0 0.079-0.014 0.148-0.041 0.205s-0.064 0.104-0.113 0.142c-0.048 0.037-0.105 0.067-0.17 0.090l-0.097 0.051h-0.481l-0.002-0.238h0.358c0.054 0 0.098-0.010 0.134-0.029s0.062-0.046 0.079-0.079c0.018-0.034 0.027-0.073 0.027-0.118 0-0.048-0.009-0.089-0.026-0.123s-0.045-0.061-0.081-0.079c-0.036-0.018-0.081-0.027-0.136-0.027h-0.248v1.244h-0.306v-1.484zM30.42 20.942l-0.338-0.661 0.323-0.002 0.342 0.649v0.014h-0.327zM32.025 20.413h-0.378v-0.238h0.378c0.058 0 0.106-0.010 0.143-0.029s0.063-0.047 0.081-0.082c0.017-0.035 0.025-0.074 0.025-0.117s-0.008-0.085-0.025-0.123c-0.017-0.038-0.044-0.069-0.081-0.092s-0.084-0.035-0.143-0.035h-0.272v1.244h-0.306v-1.484h0.578c0.116 0 0.216 0.021 0.299 0.063s0.147 0.099 0.192 0.172c0.044 0.073 0.066 0.157 0.066 0.252 0 0.096-0.022 0.179-0.066 0.249s-0.108 0.124-0.192 0.162c-0.083 0.038-0.182 0.057-0.299 0.057zM33.788 20.703v0.238h-0.79v-0.238h0.79zM33.098 19.458v1.484h-0.306v-1.484h0.306zM33.685 20.062v0.232h-0.687v-0.232h0.687zM33.787 19.458v0.239h-0.789v-0.239h0.789zM34.65 19.458v1.484h-0.305v-1.484h0.305zM35.107 19.458v0.239h-1.21v-0.239h1.21zM36.277 20.703v0.238h-0.79v-0.238h0.79zM35.587 19.458v1.484h-0.306v-1.484h0.306zM36.174 20.062v0.232h-0.687v-0.232h0.687zM36.276 19.458v0.239h-0.789v-0.239h0.789zM36.455 19.458h0.553c0.113 0 0.211 0.017 0.293 0.051s0.145 0.084 0.19 0.151 0.066 0.148 0.066 0.246c0 0.079-0.014 0.148-0.041 0.205s-0.064 0.104-0.113 0.142c-0.048 0.037-0.105 0.067-0.17 0.090l-0.097 0.051h-0.481l-0.002-0.238h0.358c0.054 0 0.098-0.010 0.134-0.029s0.062-0.046 0.079-0.079c0.018-0.034 0.027-0.073 0.027-0.118 0-0.048-0.009-0.089-0.026-0.123s-0.045-0.061-0.080-0.079c-0.036-0.018-0.081-0.027-0.136-0.027h-0.248v1.244h-0.306v-1.484zM37.285 20.942l-0.338-0.661 0.323-0.002 0.343 0.649v0.014h-0.327zM38.565 20.553c0-0.026-0.004-0.050-0.012-0.071s-0.022-0.041-0.043-0.059c-0.021-0.018-0.051-0.036-0.089-0.054s-0.087-0.036-0.148-0.055c-0.067-0.022-0.131-0.046-0.192-0.073s-0.113-0.059-0.159-0.095c-0.046-0.037-0.081-0.079-0.108-0.127s-0.039-0.104-0.039-0.168c0-0.062 0.014-0.118 0.041-0.168s0.065-0.094 0.114-0.13c0.049-0.037 0.106-0.065 0.173-0.085s0.141-0.030 0.221-0.030c0.11 0 0.205 0.020 0.287 0.059s0.145 0.093 0.189 0.162c0.046 0.069 0.069 0.147 0.069 0.235h-0.304c0-0.043-0.009-0.082-0.027-0.114s-0.045-0.059-0.082-0.078c-0.036-0.019-0.081-0.029-0.136-0.029-0.053 0-0.097 0.008-0.133 0.024s-0.062 0.037-0.080 0.064c-0.018 0.026-0.026 0.056-0.026 0.090 0 0.025 0.006 0.048 0.018 0.068s0.032 0.039 0.057 0.057 0.056 0.034 0.093 0.050c0.037 0.016 0.079 0.031 0.128 0.046 0.081 0.024 0.152 0.052 0.213 0.083s0.113 0.065 0.155 0.103 0.073 0.081 0.094 0.129c0.021 0.048 0.032 0.103 0.032 0.164 0 0.065-0.013 0.122-0.038 0.173s-0.061 0.094-0.109 0.129c-0.048 0.035-0.104 0.062-0.17 0.081s-0.14 0.027-0.221 0.027c-0.073 0-0.146-0.009-0.217-0.029s-0.136-0.049-0.195-0.089c-0.058-0.039-0.104-0.090-0.138-0.151s-0.052-0.134-0.052-0.217h0.307c0 0.046 0.007 0.085 0.022 0.117s0.034 0.058 0.060 0.077c0.026 0.020 0.058 0.034 0.094 0.043 0.037 0.009 0.077 0.013 0.12 0.013 0.053 0 0.096-0.007 0.13-0.022s0.060-0.036 0.077-0.062c0.017-0.026 0.025-0.056 0.025-0.090z"></path>
</symbol>
<symbol id="icon-logo-5" viewBox="0 0 59 32">
<path fill="#afb1b8" style="fill: var(--color3, #afb1b8)" d="M20.437 21.125c0.085 0.096 0.13 0.216 0.128 0.34 0.004 0.081-0.011 0.161-0.045 0.235s-0.086 0.141-0.152 0.194c-0.165 0.114-0.369 0.169-0.575 0.157h-1.010v-2.154h0.989c0.195-0.012 0.389 0.039 0.548 0.143 0.064 0.049 0.114 0.111 0.148 0.181s0.048 0.146 0.044 0.222c0.006 0.119-0.035 0.236-0.115 0.329-0.077 0.086-0.183 0.145-0.301 0.168 0.134 0.022 0.255 0.088 0.341 0.184zM19.253 20.8h0.423c0.096 0.006 0.192-0.019 0.269-0.072 0.032-0.026 0.056-0.059 0.072-0.096s0.022-0.076 0.019-0.115c0.003-0.039-0.003-0.078-0.019-0.114s-0.040-0.069-0.071-0.096c-0.080-0.054-0.178-0.080-0.277-0.073h-0.416v0.565zM19.986 21.626c0.034-0.027 0.061-0.061 0.078-0.099s0.025-0.079 0.022-0.12c0.003-0.042-0.005-0.083-0.023-0.121s-0.045-0.072-0.079-0.1c-0.083-0.056-0.184-0.084-0.287-0.078h-0.444v0.592h0.449c0.101 0.005 0.201-0.021 0.284-0.075z"></path>
<path fill="#afb1b8" style="fill: var(--color3, #afb1b8)" d="M22.459 22.051l-0.55-0.842h-0.207v0.842h-0.473v-2.154h0.896c0.226-0.014 0.449 0.051 0.624 0.183 0.125 0.117 0.201 0.271 0.213 0.434s-0.040 0.325-0.146 0.457c-0.111 0.116-0.262 0.193-0.427 0.219l0.586 0.861h-0.515zM21.702 20.916h0.387c0.269 0 0.403-0.109 0.403-0.326 0.003-0.044-0.005-0.089-0.022-0.131s-0.043-0.080-0.077-0.111c-0.085-0.065-0.194-0.096-0.305-0.087h-0.392l0.005 0.655z"></path>
<path fill="#afb1b8" style="fill: var(--color3, #afb1b8)" d="M25.047 21.618h-0.943l-0.167 0.433h-0.496l0.866-2.129h0.537l0.863 2.129h-0.496l-0.163-0.433zM24.921 21.291l-0.345-0.909-0.345 0.909h0.689z"></path>
<path fill="#afb1b8" style="fill: var(--color3, #afb1b8)" d="M28.286 22.051h-0.47l-1.054-1.464v1.464h-0.469v-2.154h0.469l1.054 1.473v-1.473h0.47v2.154z"></path>
<path fill="#afb1b8" style="fill: var(--color3, #afb1b8)" d="M30.968 21.536c-0.097 0.163-0.245 0.295-0.425 0.38-0.205 0.095-0.432 0.141-0.661 0.136h-0.836v-2.154h0.836c0.229-0.005 0.455 0.040 0.661 0.133 0.18 0.083 0.328 0.214 0.425 0.376 0.097 0.175 0.147 0.369 0.147 0.565s-0.050 0.39-0.147 0.565zM30.43 21.484c0.134-0.143 0.208-0.325 0.208-0.514s-0.074-0.371-0.208-0.514c-0.162-0.13-0.374-0.195-0.588-0.183h-0.326v1.394h0.326c0.215 0.012 0.426-0.053 0.588-0.183z"></path>
<path fill="#afb1b8" style="fill: var(--color3, #afb1b8)" d="M25.341 7.919c0 0 6.066 2.097 5.937 5.131v5.132c0 0-6.061-2.098-5.935-5.132l-0.002-5.131z"></path>
<path fill="#afb1b8" style="fill: var(--color3, #afb1b8)" d="M36.682 16.98c1.146-0.722 2.471-1.169 3.854-1.3v-1.607c-1.594 0.562-2.946 1.582-3.854 2.907z"></path>
<path fill="#afb1b8" style="fill: var(--color3, #afb1b8)" d="M35.994 17.464c0.937-1.729 2.563-3.063 4.542-3.727v-4.629c0 0-8.638 2.987-8.456 7.308v7.306c0 0 0.385-0.134 0.99-0.384 0-0.234 0-0.469 0.028-0.706 0.179-2.006 1.22-3.865 2.896-5.168z"></path>
<path fill="#afb1b8" style="fill: var(--color3, #afb1b8)" d="M35.172 20.178c0.045-0.507 0.146-1.008 0.302-1.496-1.043 1.125-1.675 2.522-1.806 3.993-0.013 0.139-0.020 0.278-0.023 0.421 0.491-0.216 1.062-0.485 1.661-0.802-0.153-0.696-0.198-1.408-0.134-2.116z"></path>
<path fill="#afb1b8" style="fill: var(--color3, #afb1b8)" d="M35.515 20.205c-0.057 0.64-0.022 1.284 0.107 1.916 2.36-1.293 5.012-3.291 4.91-5.705v-0.21c-1.686 0.173-3.264 0.848-4.49 1.921-0.287 0.665-0.464 1.366-0.526 2.079z"></path>
</symbol>
<symbol id="icon-gmail" viewBox="0 0 43 32">
<path d="M38.667 0h-34.667c-2.206 0-4 1.794-4 4v24c0 2.206 1.794 4 4 4h34.667c2.206 0 4-1.794 4-4v-24c0-2.206-1.794-4-4-4zM38.667 2.667c0.181 0 0.353 0.038 0.511 0.103l-17.844 15.466-17.844-15.466c0.158-0.066 0.33-0.103 0.511-0.103h34.667zM38.667 29.333h-34.667c-0.736 0-1.333-0.598-1.333-1.333v-22.413l17.793 15.421c0.251 0.217 0.563 0.326 0.874 0.326s0.622-0.108 0.874-0.326l17.793-15.421v22.413c0 0.736-0.598 1.333-1.333 1.333z"></path>
</symbol>
<symbol id="icon-facebook-1" viewBox="0 0 32 32">
<path fill="#afb1b8" style="fill: var(--color3, #afb1b8)" d="M21.329 5.313h2.921v-5.088c-0.504-0.069-2.237-0.225-4.256-0.225-4.212 0-7.097 2.649-7.097 7.519v4.481h-4.648v5.688h4.648v14.312h5.699v-14.311h4.46l0.708-5.688h-5.169v-3.919c0.001-1.644 0.444-2.769 2.735-2.769z"></path>
</symbol>
<symbol id="icon-antena" viewBox="0 0 72 32">
<path fill="#f5f4fa" style="fill: var(--color5, #f5f4fa)" d="M1.067 0h69.867c0.589 0 1.067 0.478 1.067 1.067v29.867c0 0.589-0.478 1.067-1.067 1.067h-69.867c-0.589 0-1.067-0.478-1.067-1.067v-29.867c0-0.589 0.478-1.067 1.067-1.067z"></path>
<path fill="#212121" style="fill: var(--color6, #212121)" d="M44.618 19.557l-4.925-4.961 0.547-2.692c0.141 0.055 0.291 0.084 0.442 0.085h0.004c0.695 0.008 1.266-0.549 1.274-1.244s-0.549-1.266-1.245-1.274c-0.695-0.008-1.266 0.549-1.274 1.244-0.002 0.149 0.023 0.297 0.073 0.437l-2.893 0.353-4.719-4.744c-0.058-0.059-0.137-0.093-0.22-0.093-0.082 0-0.16 0.033-0.218 0.091l-0.882 0.877c-0.122 0.122-0.122 0.318 0 0.44l0.475 0.482c-1.839 3.382-1.242 7.57 1.47 10.303 0.025 0.024 0.054 0.043 0.085 0.057-0.020 0.105-0.030 0.212-0.030 0.319v3.609h-3.733c-0.859 0.001-1.555 0.697-1.556 1.556v0.622c0 0.172 0.139 0.311 0.311 0.311h14.311c0.172 0 0.311-0.139 0.311-0.311v-0.622c-0.001-0.859-0.697-1.555-1.555-1.556h-3.733v-1.599c0.585 0.123 1.181 0.185 1.778 0.187 1.434-0.002 2.845-0.359 4.107-1.040l0.477 0.48c0.058 0.059 0.137 0.093 0.22 0.093 0.082-0 0.16-0.033 0.218-0.091l0.882-0.877c0.122-0.122 0.122-0.318 0-0.44zM40.247 10.303c0.243-0.242 0.638-0.241 0.88 0.002s0.241 0.638-0.002 0.88c-0.117 0.116-0.274 0.181-0.439 0.181h-0.002c-0.343-0.002-0.621-0.282-0.619-0.625 0.001-0.165 0.067-0.322 0.183-0.438h-0.001zM39.514 12.347l-0.349 1.718-0.686-0.69 1.035-1.029zM39.161 11.821l-1.12 1.113-0.866-0.871 1.986-0.242zM40.669 23.467c0.515 0 0.933 0.418 0.933 0.933v0.311h-13.689v-0.311c0-0.515 0.418-0.933 0.933-0.933h11.822zM36.314 22.222v0.622h-3.111v-0.622h3.111zM33.202 21.6v-2.364c0-0.755 0.698-1.369 1.555-1.369s1.556 0.614 1.556 1.369v2.364h-3.111zM36.936 20.611v-1.375c0-1.098-0.977-1.991-2.178-1.991-0.776-0.012-1.502 0.383-1.914 1.042-2.367-2.493-2.9-6.21-1.329-9.268l10.851 10.913c-1.675 0.852-3.596 1.092-5.43 0.679zM43.521 20.212l-12.283-12.355 0.44-0.439 4.629 4.655c0.002 0 0.003 0.004 0.006 0.006l7.65 7.695-0.441 0.439z"></path>
<path fill="#2196f3" style="fill: var(--color7, #2196f3)" d="M34.761 18.489h-0.003c-0.515-0.001-0.934 0.416-0.935 0.932s0.417 0.934 0.932 0.935h0.003c0.515 0.001 0.934-0.416 0.935-0.932s-0.416-0.934-0.932-0.935zM34.978 19.643c-0.058 0.058-0.138 0.091-0.221 0.091-0.172-0.001-0.31-0.141-0.309-0.313 0-0.082 0.033-0.161 0.092-0.219s0.136-0.090 0.218-0.091c0.172 0.001 0.31 0.141 0.31 0.313-0.001 0.082-0.034 0.161-0.092 0.219h0.003z"></path>
</symbol>
<symbol id="icon-cloch" viewBox="0 0 72 32">
<path fill="#f5f4fa" style="fill: var(--color5, #f5f4fa)" d="M1.067 0h69.867c0.589 0 1.067 0.478 1.067 1.067v29.867c0 0.589-0.478 1.067-1.067 1.067h-69.867c-0.589 0-1.067-0.478-1.067-1.067v-29.867c0-0.589 0.478-1.067 1.067-1.067z"></path>
<path fill="#212121" style="fill: var(--color6, #212121)" d="M44.923 15.592c-0.001-4.931-3.999-8.927-8.93-8.926s-8.927 3.999-8.926 8.93c0.001 3.884 2.512 7.321 6.212 8.503 0.035 0.011 0.072 0.017 0.109 0.017 0.070-0 0.139-0.019 0.2-0.055 0.079-0.047 0.138-0.121 0.165-0.208l2.255-7.146c0.616-0.003 1.113-0.505 1.11-1.122s-0.505-1.113-1.122-1.11c-0.166 0.001-0.329 0.039-0.478 0.112l-2.978-2.979c-0.148-0.143-0.383-0.139-0.526 0.009-0.139 0.144-0.139 0.373 0 0.517l2.977 2.98c-0.228 0.466-0.098 1.029 0.313 1.347l-2.148 6.809c-4.245-1.564-6.419-6.273-4.855-10.518s6.273-6.419 10.519-4.855c4.245 1.564 6.419 6.273 4.855 10.518-0.764 2.074-2.334 3.752-4.353 4.651l-0.232-1.093c-0.042-0.201-0.24-0.329-0.441-0.287-0.063 0.014-0.122 0.043-0.171 0.086l-2.238 1.998c-0.154 0.137-0.167 0.372-0.031 0.525 0.045 0.050 0.102 0.087 0.165 0.107l2.858 0.912c0.195 0.063 0.405-0.045 0.468-0.24 0.020-0.062 0.023-0.128 0.010-0.191l-0.228-1.073c3.304-1.393 5.449-4.633 5.442-8.219zM35.995 15.22c0.205 0 0.372 0.167 0.372 0.372s-0.167 0.372-0.372 0.372c-0.206 0-0.372-0.166-0.372-0.372s0.166-0.372 0.372-0.372zM37.221 23.891l1.274-1.136 0.352 1.657-1.626-0.52z"></path>
<path fill="#2196f3" style="fill: var(--color7, #2196f3)" d="M35.623 8.525v0.744c0 0.206 0.166 0.372 0.372 0.372s0.372-0.166 0.372-0.372v-0.744c0-0.205-0.167-0.372-0.372-0.372s-0.372 0.167-0.372 0.372z"></path>
<path fill="#2196f3" style="fill: var(--color7, #2196f3)" d="M28.928 15.22c-0.206 0-0.372 0.167-0.372 0.372s0.166 0.372 0.372 0.372h0.744c0.205 0 0.372-0.166 0.372-0.372s-0.167-0.372-0.372-0.372h-0.744z"></path>
<path fill="#2196f3" style="fill: var(--color7, #2196f3)" d="M43.063 15.964c0.205 0 0.372-0.166 0.372-0.372s-0.167-0.372-0.372-0.372h-0.744c-0.205 0-0.372 0.167-0.372 0.372s0.167 0.372 0.372 0.372h0.744z"></path>
</symbol>
<symbol id="icon-diagram" viewBox="0 0 72 32">
<path fill="#f5f4fa" style="fill: var(--color5, #f5f4fa)" d="M1.067 0h69.867c0.589 0 1.067 0.478 1.067 1.067v29.867c0 0.589-0.478 1.067-1.067 1.067h-69.867c-0.589 0-1.067-0.478-1.067-1.067v-29.867c0-0.589 0.478-1.067 1.067-1.067z"></path>
<path fill="#2196f3" style="fill: var(--color7, #2196f3)" d="M35.373 15.396h0.622v2.799h-0.622v-2.799z"></path>
<path fill="#2196f3" style="fill: var(--color7, #2196f3)" d="M37.861 16.64h0.622v1.555h-0.622v-1.555z"></path>
<path fill="#2196f3" style="fill: var(--color7, #2196f3)" d="M32.886 17.573h0.622v0.622h-0.622v-0.622z"></path>
<path fill="#2196f3" style="fill: var(--color7, #2196f3)" d="M31.020 17.262h0.622v0.933h-0.622v-0.933z"></path>
<path fill="#212121" style="fill: var(--color6, #212121)" d="M27.599 23.17h14.926c0.515 0 0.933-0.418 0.933-0.933v-1.244c0-0.515-0.418-0.933-0.933-0.933h-0.311v-7.754l1.766-1.673c0.41 0.202 0.906 0.079 1.174-0.291s0.231-0.88-0.089-1.207-0.829-0.375-1.205-0.115c-0.376 0.26-0.51 0.754-0.317 1.168l-1.331 1.262v-0.717c0-0.515-0.418-0.933-0.933-0.933h-12.438c-0.515 0-0.933 0.418-0.933 0.933v9.328h-0.311c-0.515 0-0.933 0.418-0.933 0.933v1.244c0 0.515 0.418 0.933 0.933 0.933zM44.391 9.488c0.172 0 0.311 0.139 0.311 0.311s-0.139 0.311-0.311 0.311c-0.172 0-0.311-0.139-0.311-0.311s0.139-0.311 0.311-0.311zM28.532 10.732c0-0.172 0.139-0.311 0.311-0.311h12.438c0.172 0 0.311 0.139 0.311 0.311v1.306l-0.622 0.591v-1.275c0-0.172-0.139-0.311-0.311-0.311h-11.194c-0.172 0-0.311 0.139-0.311 0.311v7.774c0 0.172 0.139 0.311 0.311 0.311h11.194c0.171 0 0.311-0.139 0.311-0.311v-5.643l0.622-0.589v7.165h-13.060v-9.328zM31.331 14.774c-0.421-0.001-0.79 0.279-0.902 0.685s0.061 0.836 0.423 1.050c0.362 0.215 0.822 0.161 1.125-0.132l1.081 0.542c0.126 0.063 0.278 0.033 0.371-0.072l2.298-2.585 2.259 1.692c0.121 0.091 0.29 0.081 0.4-0.023l1.963-1.859v4.743h-10.572v-7.152h10.572v1.552l-2.2 2.083-2.278-1.707c-0.129-0.097-0.311-0.079-0.419 0.042l-2.329 2.621-0.871-0.435c0.006-0.037 0.010-0.075 0.012-0.113 0-0.515-0.418-0.933-0.933-0.933zM31.642 15.707c0 0.172-0.139 0.311-0.311 0.311s-0.311-0.139-0.311-0.311c0-0.172 0.139-0.311 0.311-0.311s0.311 0.139 0.311 0.311zM33.507 20.682h3.11v0.311c0 0.172-0.139 0.311-0.311 0.311h-2.488c-0.172 0-0.311-0.139-0.311-0.311v-0.311zM27.289 20.993c0-0.172 0.139-0.311 0.311-0.311h5.286v0.311c0 0.515 0.418 0.933 0.933 0.933h2.488c0.515 0 0.933-0.418 0.933-0.933v-0.311h5.286c0.172 0 0.311 0.139 0.311 0.311v1.244c0 0.172-0.139 0.311-0.311 0.311h-14.926c-0.172 0-0.311-0.139-0.311-0.311v-1.244z"></path>
</symbol>
<symbol id="icon-astronawt" viewBox="0 0 72 32">
<path fill="#f5f4fa" style="fill: var(--color5, #f5f4fa)" d="M1.067 0h69.867c0.589 0 1.067 0.478 1.067 1.067v29.867c0 0.589-0.478 1.067-1.067 1.067h-69.867c-0.589 0-1.067-0.478-1.067-1.067v-29.867c0-0.589 0.478-1.067 1.067-1.067z"></path>
<path fill="#2196f3" style="fill: var(--color7, #2196f3)" d="M45.318 9.306c-0.037-0.112-0.134-0.194-0.251-0.212l-1.114-0.162-0.499-1.010c-0.105-0.213-0.453-0.213-0.558 0l-0.499 1.010-1.115 0.162c-0.117 0.017-0.214 0.099-0.251 0.212s-0.006 0.236 0.079 0.319l0.807 0.786-0.19 1.11c-0.020 0.117 0.028 0.235 0.123 0.304 0.097 0.070 0.223 0.079 0.328 0.024l0.997-0.524 0.997 0.524c0.046 0.024 0.095 0.036 0.145 0.036 0.064 0 0.129-0.020 0.183-0.059 0.096-0.070 0.144-0.188 0.123-0.304l-0.19-1.11 0.807-0.786c0.085-0.083 0.115-0.206 0.079-0.319zM43.882 10.080c-0.073 0.071-0.107 0.175-0.089 0.275l0.111 0.65-0.583-0.307c-0.045-0.024-0.095-0.036-0.145-0.036s-0.099 0.012-0.145 0.036l-0.583 0.307 0.111-0.65c0.018-0.101-0.016-0.204-0.089-0.275l-0.473-0.46 0.653-0.095c0.101-0.015 0.189-0.078 0.234-0.17l0.292-0.591 0.292 0.591c0.046 0.092 0.133 0.156 0.234 0.17l0.653 0.095-0.472 0.46z"></path>
<path fill="#2196f3" style="fill: var(--color7, #2196f3)" d="M41.911 18.638h-0.622v0.622h0.622v-0.622z"></path>
<path fill="#2196f3" style="fill: var(--color7, #2196f3)" d="M41.911 19.882h-0.622v0.622h0.622v-0.622z"></path>
<path fill="#2196f3" style="fill: var(--color7, #2196f3)" d="M42.533 19.26h-0.622v0.622h0.622v-0.622z"></path>
<path fill="#2196f3" style="fill: var(--color7, #2196f3)" d="M41.289 19.26h-0.622v0.622h0.622v-0.622z"></path>
<path fill="#2196f3" style="fill: var(--color7, #2196f3)" d="M39.733 22.060h-0.622v0.622h0.622v-0.622z"></path>
<path fill="#2196f3" style="fill: var(--color7, #2196f3)" d="M39.733 23.305h-0.622v0.622h0.622v-0.622z"></path>
<path fill="#2196f3" style="fill: var(--color7, #2196f3)" d="M40.356 22.682h-0.622v0.622h0.622v-0.622z"></path>
<path fill="#2196f3" style="fill: var(--color7, #2196f3)" d="M39.111 22.682h-0.622v0.622h0.622v-0.622z"></path>
<path fill="#2196f3" style="fill: var(--color7, #2196f3)" d="M36 20.816h-0.622v0.622h0.622v-0.622z"></path>
<path fill="#2196f3" style="fill: var(--color7, #2196f3)" d="M36 22.060h-0.622v0.622h0.622v-0.622z"></path>
<path fill="#2196f3" style="fill: var(--color7, #2196f3)" d="M36.622 21.438h-0.622v0.622h0.622v-0.622z"></path>
<path fill="#2196f3" style="fill: var(--color7, #2196f3)" d="M35.378 21.438h-0.622v0.622h0.622v-0.622z"></path>
<path fill="#2196f3" style="fill: var(--color7, #2196f3)" d="M30.089 10.238h-0.622v0.622h0.622v-0.622z"></path>
<path fill="#2196f3" style="fill: var(--color7, #2196f3)" d="M30.089 11.482h-0.622v0.622h0.622v-0.622z"></path>
<path fill="#2196f3" style="fill: var(--color7, #2196f3)" d="M30.711 10.86h-0.622v0.622h0.622v-0.622z"></path>
<path fill="#2196f3" style="fill: var(--color7, #2196f3)" d="M29.467 10.86h-0.622v0.622h0.622v-0.622z"></path>
<path fill="#212121" style="fill: var(--color6, #212121)" d="M41.084 14.926c-0.168-0.226-0.414-0.372-0.693-0.411-0.281-0.040-0.558 0.034-0.782 0.205l-0.73 0.56-1.107 0.827-0.792-0.316c1.413-0.634 2.4-2.046 2.4-3.687 0-2.23-1.822-4.044-4.061-4.044s-4.061 1.814-4.061 4.044c0 0.808 0.242 1.56 0.653 2.192l-1.612-0.014c-0.001 0-0.002 0-0.003 0-0.005 0-0.009 0.002-0.014 0.003-0.031 0.001-0.061 0.007-0.091 0.018-0.007 0.003-0.015 0.004-0.022 0.008-0.004 0.002-0.007 0.002-0.011 0.004l-1.886 0.931c-0 0-0.001 0-0.001 0l-1.104 0.531c-0.012 0.005-0.025 0.012-0.037 0.021-0.44 0.293-0.59 0.869-0.349 1.339 0.129 0.25 0.347 0.434 0.616 0.519 0.104 0.032 0.209 0.048 0.315 0.048 0.169 0 0.336-0.041 0.49-0.123l0.81-0.431 1.321-0.682 0.791-0.005-3.174 3.159c-0 0-0.001 0-0.001 0.001l-0.781 0.778c-0.184 0.184-0.286 0.427-0.286 0.687s0.102 0.504 0.286 0.688c0.19 0.189 0.439 0.283 0.688 0.283s0.498-0.095 0.689-0.283l0.767-0.764 1.015-0.758 0.525 0.523-1.027 1.023c-0.001 0-0.001 0-0.001 0.001l-0.781 0.778c-0.185 0.184-0.286 0.427-0.286 0.687s0.102 0.504 0.286 0.688c0.189 0.189 0.439 0.283 0.688 0.283s0.499-0.095 0.689-0.283l2.031-2.022c0-0 0-0.001 0.001-0.001l0.589-0.583-0.002-0.002c0.004-0.004 0.009-0.005 0.013-0.009l3.013-3.301 2.025 0.288c0.015 0.002 0.029 0.003 0.044 0.003 0.038 0 0.074-0.009 0.109-0.022 0.010-0.004 0.019-0.009 0.029-0.014 0.011-0.006 0.023-0.009 0.034-0.016l1.874-1.244c0.007-0.005 0.011-0.012 0.017-0.017 0.007-0.006 0.017-0.008 0.024-0.015l0.742-0.695c0.386-0.362 0.439-0.954 0.124-1.378zM27.909 17.033c-0.101 0.054-0.216 0.065-0.326 0.030s-0.197-0.108-0.249-0.209c-0.094-0.183-0.039-0.406 0.125-0.526l0.766-0.369 0.185 0.539 0.077 0.226-0.579 0.308zM29.949 15.966l-0.903 0.467-0.149-0.436-0.107-0.313 1.182-0.584-0.023 0.866zM38.757 12.104c0 0.536-0.128 1.041-0.349 1.493l-2.439-1.108c-0.025-0.334-0.199-0.627-0.46-0.81l0.854-2.835c1.387 0.441 2.394 1.735 2.394 3.26zM31.881 12.104c0-1.887 1.542-3.422 3.438-3.422 0.147 0 0.292 0.012 0.435 0.030l-0.835 2.773c-0.011-0-0.022-0.003-0.033-0.003-0.602 0-1.093 0.488-1.093 1.089s0.49 1.089 1.093 1.089c0.405 0 0.755-0.224 0.944-0.551l2.253 1.024c-0.627 0.844-1.63 1.394-2.763 1.394-1.896 0-3.438-1.535-3.438-3.422zM35.355 12.571c0 0.257-0.211 0.467-0.47 0.467s-0.47-0.209-0.47-0.467 0.211-0.467 0.47-0.467c0.259 0 0.47 0.209 0.47 0.467zM28.105 21.335c-0.138 0.137-0.361 0.136-0.498 0-0.066-0.066-0.103-0.154-0.103-0.247s0.036-0.18 0.103-0.246l0.561-0.559 0.497 0.494-0.559 0.557zM29.979 23.513c-0.138 0.137-0.361 0.137-0.499 0-0.066-0.066-0.103-0.154-0.103-0.247s0.036-0.18 0.103-0.246l0.562-0.559 0.497 0.494-0.56 0.557zM32.010 21.49c-0 0-0.001 0-0.001 0.001l-1.030 1.027-0.497-0.494 1.029-1.024c0 0 0 0 0-0s0.001-0 0.001-0.001c0.023-0.023 0.038-0.051 0.052-0.079 0.004-0.008 0.012-0.015 0.015-0.023 0.010-0.024 0.011-0.050 0.015-0.075 0.002-0.014 0.008-0.028 0.008-0.042 0-0.021-0.007-0.041-0.012-0.062-0.004-0.019-0.004-0.038-0.011-0.056-0.012-0.029-0.032-0.055-0.053-0.080-0.006-0.007-0.008-0.016-0.015-0.022 0 0 0 0-0.001 0s-0-0.001-0.001-0.001l-0.937-0.933c-0.010-0.010-0.023-0.014-0.034-0.022-0.017-0.013-0.032-0.025-0.051-0.034s-0.036-0.014-0.055-0.019c-0.020-0.006-0.039-0.010-0.060-0.012-0.019-0.001-0.037 0.001-0.055 0.003-0.021 0.002-0.041 0.005-0.061 0.012s-0.037 0.016-0.055 0.026c-0.012 0.007-0.025 0.009-0.035 0.017l-1.035 0.772-0.525-0.523 1.399-1.392 2.543 2.502-0.541 0.536zM35.988 17.397c-0.009-0.001-0.017 0.002-0.026 0.002-0.023-0.001-0.044 0-0.067 0.004-0.018 0.003-0.034 0.007-0.051 0.012-0.020 0.007-0.038 0.016-0.056 0.027s-0.033 0.022-0.049 0.036c-0.007 0.006-0.017 0.010-0.023 0.017l-2.741 3.002-2.525-2.483 1.653-1.644c0.122-0.121 0.122-0.318 0.001-0.44-0.061-0.061-0.142-0.091-0.222-0.091v-0l-1.294 0.008 0.016-0.938 1.811 0.016c0.738 0.755 1.767 1.225 2.906 1.225 0.255 0 0.504-0.026 0.746-0.072 0.023 0.019 0.046 0.038 0.075 0.049l1.406 0.56 0.089 0.442 0.104 0.516-1.752-0.249zM38.345 17.5l-0.182-0.909 0.844-0.63 0.552 0.733-1.214 0.806zM40.535 15.849l-0.489 0.458-0.543-0.721 0.485-0.372c0.091-0.070 0.205-0.098 0.317-0.083 0.113 0.016 0.212 0.075 0.28 0.166 0.126 0.17 0.105 0.408-0.050 0.553z"></path>
<path fill="#212121" style="fill: var(--color6, #212121)" d="M34.601 17.484l-1.25-1.244c-0.121-0.121-0.318-0.121-0.439 0l-1.25 1.244c-0.058 0.059-0.091 0.138-0.091 0.221s0.033 0.162 0.091 0.221l1.25 1.244c0.061 0.060 0.14 0.091 0.219 0.091s0.159-0.030 0.219-0.091l1.25-1.244c0.058-0.058 0.092-0.138 0.092-0.221s-0.033-0.162-0.092-0.221zM33.132 18.51l-0.809-0.805 0.809-0.805 0.809 0.805-0.809 0.805z"></path>
<path fill="#212121" style="fill: var(--color6, #212121)" d="M36.679 9.625l-0.15 0.604c0.041 0.010 1.014 0.264 1.014 1.254h0.622c0-1.177-0.972-1.73-1.486-1.858z"></path>
<path fill="#212121" style="fill: var(--color6, #212121)" d="M38.165 12.104h-0.622v0.622h0.622v-0.622z"></path>
</symbol>
<symbol id="icon-telegram" viewBox="0 0 32 32">
<path fill="#fff" style="fill: var(--color1, #fff)" d="M32 0l-32 18 10.227 3.788 15.773-14.788-11.998 16.186 0.010 0.004-0.012-0.004v8.814l5.735-6.691 7.265 2.691 5-28z"></path>
</symbol>
<symbol id="icon-instagram-2" viewBox="0 0 32 32">
<path fill="#fff" style="fill: var(--color1, #fff)" d="M31.969 9.408c-0.075-1.7-0.35-2.869-0.744-3.882-0.406-1.075-1.032-2.038-1.851-2.838-0.8-0.813-1.769-1.444-2.832-1.844-1.019-0.394-2.182-0.669-3.882-0.744-1.713-0.081-2.257-0.1-6.601-0.1s-4.888 0.019-6.595 0.094c-1.7 0.075-2.869 0.35-3.882 0.744-1.075 0.406-2.038 1.031-2.838 1.85-0.813 0.8-1.444 1.769-1.844 2.832-0.394 1.019-0.669 2.182-0.744 3.882-0.081 1.713-0.1 2.257-0.1 6.601s0.019 4.888 0.094 6.595c0.075 1.7 0.35 2.869 0.744 3.882 0.406 1.075 1.038 2.038 1.85 2.838 0.8 0.813 1.769 1.444 2.832 1.844 1.019 0.394 2.182 0.669 3.882 0.744 1.706 0.075 2.25 0.094 6.595 0.094s4.888-0.019 6.595-0.094c1.7-0.075 2.869-0.35 3.882-0.744 2.151-0.832 3.851-2.532 4.682-4.682 0.394-1.019 0.669-2.182 0.744-3.882 0.075-1.707 0.094-2.251 0.094-6.595s-0.006-4.888-0.081-6.595zM29.087 22.473c-0.069 1.563-0.331 2.407-0.55 2.969-0.538 1.394-1.644 2.5-3.038 3.038-0.563 0.219-1.413 0.481-2.969 0.55-1.688 0.075-2.194 0.094-6.464 0.094s-4.782-0.019-6.464-0.094c-1.563-0.069-2.407-0.331-2.969-0.55-0.694-0.256-1.325-0.663-1.838-1.194-0.531-0.519-0.938-1.144-1.194-1.838-0.219-0.563-0.481-1.413-0.55-2.969-0.075-1.688-0.094-2.194-0.094-6.464s0.019-4.782 0.094-6.464c0.069-1.563 0.331-2.407 0.55-2.969 0.256-0.694 0.663-1.325 1.2-1.838 0.519-0.531 1.144-0.938 1.838-1.194 0.563-0.219 1.413-0.481 2.969-0.55 1.688-0.075 2.194-0.094 6.464-0.094 4.276 0 4.782 0.019 6.464 0.094 1.563 0.069 2.407 0.331 2.969 0.55 0.694 0.256 1.325 0.662 1.838 1.194 0.531 0.519 0.938 1.144 1.194 1.838 0.219 0.563 0.481 1.413 0.55 2.969 0.075 1.688 0.094 2.194 0.094 6.464s-0.019 4.77-0.094 6.458z"></path>
<path fill="#fff" style="fill: var(--color1, #fff)" d="M16.059 7.783c-4.538 0-8.22 3.682-8.22 8.22s3.682 8.22 8.22 8.22c4.538 0 8.22-3.682 8.22-8.22s-3.682-8.22-8.22-8.22zM16.059 21.335c-2.944 0-5.332-2.388-5.332-5.332s2.388-5.332 5.332-5.332c2.944 0 5.332 2.388 5.332 5.332s-2.388 5.332-5.332 5.332z"></path>
<path fill="#fff" style="fill: var(--color1, #fff)" d="M26.524 7.458c0 1.060-0.859 1.919-1.919 1.919s-1.919-0.859-1.919-1.919c0-1.060 0.859-1.919 1.919-1.919s1.919 0.859 1.919 1.919z"></path>
</symbol>
<symbol id="icon-linkedin-1" viewBox="0 0 32 32">
<path fill="#afb1b8" style="fill: var(--color3, #afb1b8)" d="M31.992 32v-0.001h0.008v-11.736c0-5.741-1.236-10.164-7.948-10.164-3.227 0-5.392 1.771-6.276 3.449h-0.093v-2.913h-6.364v21.364h6.627v-10.579c0-2.785 0.528-5.479 3.977-5.479 3.399 0 3.449 3.179 3.449 5.657v10.401h6.62z"></path>
<path fill="#afb1b8" style="fill: var(--color3, #afb1b8)" d="M0.528 10.636h6.635v21.364h-6.635v-21.364z"></path>
<path fill="#afb1b8" style="fill: var(--color3, #afb1b8)" d="M3.843 0c-2.121 0-3.843 1.721-3.843 3.843s1.721 3.879 3.843 3.879c2.121 0 3.843-1.757 3.843-3.879-0.001-2.121-1.723-3.843-3.843-3.843v0z"></path>
</symbol>
<symbol id="icon-linkedin-2" viewBox="0 0 32 32">
<path fill="#fff" style="fill: var(--color1, #fff)" d="M31.992 32v-0.001h0.008v-11.736c0-5.741-1.236-10.164-7.948-10.164-3.227 0-5.392 1.771-6.276 3.449h-0.093v-2.913h-6.364v21.364h6.627v-10.579c0-2.785 0.528-5.479 3.977-5.479 3.399 0 3.449 3.179 3.449 5.657v10.401h6.62z"></path>
<path fill="#fff" style="fill: var(--color1, #fff)" d="M0.528 10.636h6.635v21.364h-6.635v-21.364z"></path>
<path fill="#fff" style="fill: var(--color1, #fff)" d="M3.843 0c-2.121 0-3.843 1.721-3.843 3.843s1.721 3.879 3.843 3.879c2.121 0 3.843-1.757 3.843-3.879-0.001-2.121-1.723-3.843-3.843-3.843v0z"></path>
</symbol>
<symbol id="icon-facebook-2" viewBox="0 0 32 32">
<path fill="#fff" style="fill: var(--color1, #fff)" d="M21.329 5.313h2.921v-5.088c-0.504-0.069-2.237-0.225-4.256-0.225-4.212 0-7.097 2.649-7.097 7.519v4.481h-4.648v5.688h4.648v14.312h5.699v-14.311h4.46l0.708-5.688h-5.169v-3.919c0.001-1.644 0.444-2.769 2.735-2.769z"></path>
</symbol>
<symbol id="icon-twitter-2" viewBox="0 0 32 32">
<path fill="#fff" style="fill: var(--color1, #fff)" d="M32 6.078c-1.19 0.522-2.458 0.868-3.78 1.036 1.36-0.812 2.398-2.088 2.886-3.626-1.268 0.756-2.668 1.29-4.16 1.588-1.204-1.282-2.92-2.076-4.792-2.076-3.632 0-6.556 2.948-6.556 6.562 0 0.52 0.044 1.020 0.152 1.496-5.454-0.266-10.28-2.88-13.522-6.862-0.566 0.982-0.898 2.106-0.898 3.316 0 2.272 1.17 4.286 2.914 5.452-1.054-0.020-2.088-0.326-2.964-0.808 0 0.020 0 0.046 0 0.072 0 3.188 2.274 5.836 5.256 6.446-0.534 0.146-1.116 0.216-1.72 0.216-0.42 0-0.844-0.024-1.242-0.112 0.85 2.598 3.262 4.508 6.13 4.57-2.232 1.746-5.066 2.798-8.134 2.798-0.538 0-1.054-0.024-1.57-0.090 2.906 1.874 6.35 2.944 10.064 2.944 12.072 0 18.672-10 18.672-18.668 0-0.29-0.010-0.57-0.024-0.848 1.302-0.924 2.396-2.078 3.288-3.406z"></path>
</symbol>
<symbol id="icon-insta-1" viewBox="0 0 32 32">
<path d="M31.969 9.408c-0.075-1.7-0.35-2.869-0.744-3.882-0.406-1.075-1.031-2.038-1.85-2.838-0.8-0.813-1.769-1.444-2.832-1.844-1.019-0.394-2.182-0.669-3.882-0.744-1.713-0.081-2.257-0.1-6.601-0.1s-4.888 0.019-6.595 0.094c-1.7 0.075-2.869 0.35-3.882 0.744-1.075 0.406-2.038 1.031-2.838 1.85-0.813 0.8-1.444 1.769-1.844 2.832-0.394 1.019-0.669 2.182-0.744 3.882-0.081 1.713-0.1 2.257-0.1 6.601s0.019 4.888 0.094 6.595c0.075 1.7 0.35 2.869 0.744 3.882 0.406 1.075 1.038 2.038 1.85 2.838 0.8 0.813 1.769 1.444 2.832 1.844 1.019 0.394 2.182 0.669 3.882 0.744 1.706 0.075 2.25 0.094 6.595 0.094s4.888-0.019 6.595-0.094c1.7-0.075 2.869-0.35 3.882-0.744 2.151-0.832 3.851-2.532 4.682-4.682 0.394-1.019 0.669-2.182 0.744-3.882 0.075-1.707 0.094-2.251 0.094-6.595s-0.006-4.888-0.081-6.595zM29.087 22.473c-0.069 1.563-0.331 2.407-0.55 2.969-0.538 1.394-1.644 2.5-3.038 3.038-0.563 0.219-1.413 0.481-2.969 0.55-1.688 0.075-2.194 0.094-6.464 0.094s-4.782-0.019-6.464-0.094c-1.563-0.069-2.407-0.331-2.969-0.55-0.694-0.256-1.325-0.663-1.838-1.194-0.531-0.519-0.938-1.144-1.194-1.838-0.219-0.563-0.481-1.413-0.55-2.969-0.075-1.688-0.094-2.194-0.094-6.464s0.019-4.782 0.094-6.464c0.069-1.563 0.331-2.407 0.55-2.969 0.256-0.694 0.663-1.325 1.2-1.838 0.519-0.531 1.144-0.938 1.838-1.194 0.563-0.219 1.413-0.481 2.969-0.55 1.688-0.075 2.194-0.094 6.464-0.094 4.276 0 4.782 0.019 6.464 0.094 1.563 0.069 2.407 0.331 2.969 0.55 0.694 0.256 1.325 0.662 1.838 1.194 0.531 0.519 0.938 1.144 1.194 1.838 0.219 0.563 0.481 1.413 0.55 2.969 0.075 1.688 0.094 2.194 0.094 6.464s-0.019 4.77-0.094 6.458z"></path>
<path d="M16.059 7.783c-4.538 0-8.22 3.682-8.22 8.22s3.682 8.22 8.22 8.22c4.539 0 8.22-3.682 8.22-8.22s-3.682-8.22-8.22-8.22zM16.059 21.335c-2.944 0-5.332-2.388-5.332-5.332s2.388-5.332 5.332-5.332c2.944 0 5.332 2.388 5.332 5.332s-2.388 5.332-5.332 5.332z"></path>
<path d="M26.524 7.458c0 1.060-0.859 1.919-1.919 1.919s-1.919-0.859-1.919-1.919c0-1.060 0.859-1.919 1.919-1.919s1.919 0.859 1.919 1.919z"></path>
</symbol>
<symbol id="icon-Logo-1" viewBox="0 0 57 32">
<path fill="#afb1b8" style="fill: var(--color3, #afb1b8)" d="M26.727 3.165h-0.073c-0.112-0.007-0.224-0.010-0.336-0.012v0h-0.243c-0.212 0-0.428 0.005-0.642 0.016-0.016-0.001-0.032-0.001-0.049 0-1.944 0.11-3.848 0.596-5.609 1.431l-0.231 0.111v11.809l0.54-0.183c0.474-0.163 0.978-0.309 1.5-0.445 1.411-0.362 2.861-0.555 4.317-0.574v1.551c-0.193 0.001-0.38 0.007-0.568 0.016h-0.045c-1.121 0.061-2.233 0.232-3.322 0.51-1.378 0.345-2.708 0.863-3.957 1.542v-15.145c1.298-0.757 2.695-1.325 4.151-1.688 1.278-0.33 2.593-0.5 3.913-0.504h0.228c0.273 0.007 0.538 0.019 0.788 0.038 0.658 0.046 1.31 0.15 1.95 0.311v1.527c-0.621-0.145-1.253-0.24-1.889-0.285-0.013-0.001-0.026-0.002-0.039-0.003-0.132-0.011-0.263-0.022-0.386-0.022zM29.415 4.726c0.339 0.026 0.689 0.038 1.044 0.038 1.388-0.005 2.769-0.182 4.114-0.528 1.378-0.346 2.706-0.865 3.956-1.543v14.875c-1.298 0.756-2.696 1.325-4.153 1.688-1.279 0.329-2.593 0.498-3.913 0.503-1 0.008-1.997-0.11-2.968-0.35v-14.971c0.229 0.053 0.465 0.102 0.706 0.142 0.394 0.066 0.81 0.115 1.214 0.145zM36.985 4.841l-0.54 0.182c-0.497 0.167-0.997 0.316-1.5 0.449-1.465 0.377-2.971 0.57-4.483 0.575-0.352 0-0.676-0.010-0.989-0.030l-0.43-0.028v12.148l0.37 0.033c0.343 0.030 0.696 0.045 1.052 0.045 1.191-0.005 2.377-0.159 3.531-0.457 0.95-0.238 1.874-0.57 2.759-0.991l0.231-0.111v-11.813z"></path>
<path fill="#afb1b8" style="fill: var(--color3, #afb1b8)" d="M19.060 24.113c-0.078-0.080-0.171-0.144-0.274-0.186s-0.214-0.061-0.326-0.057c-0.119-0.002-0.237 0.021-0.347 0.065-0.101 0.040-0.193 0.101-0.27 0.178s-0.135 0.17-0.174 0.271c-0.042 0.107-0.063 0.22-0.062 0.335v2.023c-0.005 0.143 0.022 0.284 0.080 0.415 0.048 0.104 0.117 0.196 0.202 0.271 0.081 0.068 0.176 0.117 0.278 0.144 0.098 0.028 0.2 0.042 0.302 0.042 0.113 0.001 0.224-0.023 0.326-0.070 0.101-0.044 0.193-0.108 0.27-0.187 0.075-0.079 0.135-0.171 0.177-0.271 0.043-0.102 0.065-0.212 0.065-0.323v-0.226h-0.529v0.18c0.002 0.062-0.009 0.123-0.031 0.18-0.017 0.043-0.043 0.082-0.077 0.114-0.033 0.026-0.070 0.046-0.111 0.058-0.036 0.012-0.073 0.018-0.111 0.019-0.047 0.006-0.095-0.002-0.139-0.021s-0.081-0.049-0.11-0.088c-0.050-0.081-0.074-0.176-0.070-0.271v-1.887c-0.003-0.105 0.019-0.208 0.065-0.302 0.027-0.043 0.066-0.077 0.112-0.098s0.097-0.030 0.147-0.024c0.046-0.002 0.091 0.008 0.132 0.028s0.077 0.049 0.104 0.086c0.059 0.078 0.090 0.173 0.088 0.271v0.175h0.524v-0.206c0.001-0.121-0.021-0.241-0.065-0.354-0.039-0.106-0.099-0.203-0.177-0.285z"></path>
<path fill="#afb1b8" style="fill: var(--color3, #afb1b8)" d="M22.202 24.090c-0.169-0.142-0.381-0.221-0.602-0.222-0.108 0-0.215 0.020-0.316 0.057-0.103 0.037-0.198 0.093-0.279 0.165-0.088 0.079-0.158 0.175-0.205 0.283-0.053 0.124-0.079 0.257-0.077 0.392v1.941c-0.004 0.137 0.023 0.272 0.077 0.397 0.048 0.104 0.118 0.197 0.205 0.271 0.081 0.075 0.176 0.133 0.279 0.171 0.101 0.037 0.208 0.056 0.316 0.057s0.215-0.020 0.316-0.057c0.105-0.038 0.202-0.096 0.286-0.171 0.084-0.076 0.152-0.168 0.2-0.271 0.054-0.125 0.081-0.261 0.077-0.397v-1.941c0.003-0.135-0.024-0.268-0.077-0.392-0.047-0.107-0.115-0.203-0.2-0.283zM21.955 26.706c0.004 0.052-0.003 0.104-0.021 0.152s-0.047 0.092-0.084 0.128c-0.070 0.059-0.158 0.091-0.249 0.091s-0.179-0.032-0.249-0.091c-0.037-0.036-0.066-0.080-0.084-0.128s-0.025-0.101-0.021-0.152v-1.941c-0.004-0.052 0.003-0.104 0.021-0.152s0.047-0.092 0.084-0.128c0.070-0.059 0.158-0.091 0.249-0.091s0.179 0.032 0.249 0.091c0.037 0.036 0.066 0.080 0.084 0.128s0.025 0.101 0.021 0.152v1.941z"></path>
<path fill="#afb1b8" style="fill: var(--color3, #afb1b8)" d="M26.329 27.573v-3.674h-0.509l-0.668 1.945h-0.009l-0.673-1.945h-0.503v3.674h0.525v-2.235h0.009l0.514 1.58h0.262l0.518-1.58h0.009v2.235h0.525z"></path>
<path fill="#afb1b8" style="fill: var(--color3, #afb1b8)" d="M29.311 24.157c-0.081-0.091-0.183-0.16-0.297-0.201-0.123-0.040-0.251-0.059-0.38-0.057h-0.78v3.674h0.523v-1.435h0.27c0.163 0.007 0.326-0.027 0.472-0.1 0.119-0.066 0.218-0.163 0.287-0.281 0.061-0.098 0.101-0.206 0.12-0.32 0.021-0.138 0.030-0.278 0.028-0.418 0.005-0.176-0.012-0.353-0.051-0.525-0.035-0.127-0.101-0.243-0.193-0.338zM29.041 25.277c-0.002 0.067-0.019 0.132-0.049 0.191-0.030 0.056-0.077 0.102-0.135 0.129-0.078 0.035-0.162 0.050-0.247 0.046h-0.239v-1.249h0.27c0.081-0.004 0.162 0.012 0.236 0.046 0.054 0.031 0.097 0.079 0.123 0.136 0.029 0.065 0.044 0.134 0.046 0.205 0 0.077 0 0.159 0 0.244s0.005 0.174 0 0.252h-0.005z"></path>
<path fill="#afb1b8" style="fill: var(--color3, #afb1b8)" d="M31.791 23.899h-0.429l-0.809 3.674h0.523l0.154-0.789h0.714l0.154 0.789h0.524l-0.83-3.674zM31.308 26.283l0.258-1.332h0.009l0.256 1.332h-0.524z"></path>
<path fill="#afb1b8" style="fill: var(--color3, #afb1b8)" d="M35.173 26.112h-0.009l-0.791-2.213h-0.503v3.674h0.523v-2.209h0.011l0.8 2.209h0.492v-3.674h-0.523v2.213z"></path>
<path fill="#afb1b8" style="fill: var(--color3, #afb1b8)" d="M38.372 23.899l-0.421 1.461h-0.011l-0.421-1.461h-0.554l0.719 2.121v1.553h0.524v-1.553l0.719-2.121h-0.554z"></path>
<path fill="#afb1b8" style="fill: var(--color3, #afb1b8)" d="M17.6 28.61h0.252v0.708h0.171v-0.708h0.251v-0.145h-0.675v0.145z"></path>
<path fill="#afb1b8" style="fill: var(--color3, #afb1b8)" d="M19.721 28.465l-0.331 0.853h0.182l0.070-0.194h0.34l0.073 0.194h0.186l-0.339-0.853h-0.182zM19.694 28.981l0.116-0.316 0.116 0.316h-0.232z"></path>
<path fill="#afb1b8" style="fill: var(--color3, #afb1b8)" d="M21.818 29.004h0.197v0.11c-0.058 0.046-0.129 0.071-0.202 0.072-0.034 0.002-0.069-0.004-0.1-0.019s-0.059-0.036-0.081-0.063c-0.045-0.065-0.068-0.143-0.063-0.222 0-0.19 0.082-0.285 0.246-0.285 0.043-0.004 0.086 0.007 0.121 0.032s0.061 0.062 0.072 0.104l0.169-0.033c-0.036-0.167-0.156-0.251-0.362-0.251-0.11-0.003-0.216 0.036-0.298 0.11-0.043 0.042-0.076 0.094-0.097 0.15s-0.030 0.117-0.025 0.178c-0.005 0.117 0.034 0.231 0.109 0.32 0.042 0.043 0.092 0.077 0.148 0.098s0.116 0.031 0.176 0.027c0.134 0.004 0.263-0.045 0.362-0.136v-0.336h-0.37v0.144z"></path>
<path fill="#afb1b8" style="fill: var(--color3, #afb1b8)" d="M23.959 28.465h-0.173v0.853h0.598v-0.145h-0.425v-0.708z"></path>
<path fill="#afb1b8" style="fill: var(--color3, #afb1b8)" d="M25.769 28.465h-0.173v0.853h0.173v-0.853z"></path>
<path fill="#afb1b8" style="fill: var(--color3, #afb1b8)" d="M27.539 29.035l-0.349-0.57h-0.167v0.853h0.161v-0.557l0.343 0.557h0.171v-0.853h-0.158v0.57z"></path>
<path fill="#afb1b8" style="fill: var(--color3, #afb1b8)" d="M29.14 28.943h0.425v-0.145h-0.425v-0.187h0.457v-0.145h-0.63v0.853h0.648v-0.145h-0.475v-0.231z"></path>
<path fill="#afb1b8" style="fill: var(--color3, #afb1b8)" d="M33.020 28.802h-0.336v-0.336h-0.171v0.853h0.171v-0.373h0.336v0.373h0.171v-0.853h-0.171v0.336z"></path>
<path fill="#afb1b8" style="fill: var(--color3, #afb1b8)" d="M34.629 28.943h0.426v-0.145h-0.426v-0.187h0.459v-0.145h-0.63v0.853h0.646v-0.145h-0.475v-0.231z"></path>
<path fill="#afb1b8" style="fill: var(--color3, #afb1b8)" d="M36.812 28.943c0.148-0.023 0.224-0.102 0.224-0.237 0.004-0.036-0.001-0.073-0.016-0.106s-0.038-0.062-0.068-0.083c-0.077-0.039-0.163-0.056-0.25-0.050h-0.362v0.853h0.171v-0.357h0.034c0.037-0.002 0.073 0.004 0.107 0.019 0.025 0.015 0.046 0.037 0.061 0.062l0.186 0.271h0.205l-0.104-0.167c-0.046-0.082-0.111-0.153-0.189-0.205zM36.64 28.825h-0.127v-0.214h0.135c0.059-0.005 0.118 0.002 0.174 0.020 0.012 0.011 0.022 0.025 0.029 0.040s0.009 0.032 0.009 0.049c-0.001 0.017-0.005 0.033-0.013 0.048s-0.019 0.027-0.032 0.037c-0.056 0.017-0.115 0.024-0.174 0.020z"></path>
<path fill="#afb1b8" style="fill: var(--color3, #afb1b8)" d="M38.458 28.943h0.425v-0.145h-0.425v-0.187h0.459v-0.145h-0.631v0.853h0.648v-0.145h-0.475v-0.231z"></path>
</symbol>
<symbol id="icon-Logo-2" viewBox="0 0 57 32">
<path fill="#afb1b8" style="fill: var(--color3, #afb1b8)" d="M19.417 26.187c0.008 0 0.017 0.002 0.025 0.005s0.015 0.007 0.020 0.013l0.116 0.111c-0.090 0.090-0.202 0.162-0.327 0.211-0.147 0.053-0.305 0.079-0.464 0.076-0.149 0.003-0.298-0.021-0.436-0.071-0.125-0.045-0.237-0.113-0.329-0.2-0.094-0.089-0.166-0.194-0.212-0.308-0.051-0.127-0.076-0.261-0.074-0.396-0.002-0.135 0.025-0.27 0.080-0.397 0.051-0.115 0.127-0.22 0.225-0.308 0.099-0.087 0.218-0.155 0.349-0.201 0.143-0.048 0.296-0.072 0.449-0.071 0.143-0.003 0.285 0.019 0.417 0.064 0.115 0.043 0.221 0.104 0.313 0.178l-0.097 0.119c-0.007 0.008-0.015 0.016-0.025 0.021-0.012 0.007-0.025 0.010-0.039 0.009-0.015-0.001-0.030-0.005-0.042-0.013l-0.052-0.032-0.073-0.040c-0.031-0.015-0.064-0.028-0.097-0.039-0.043-0.013-0.087-0.024-0.132-0.032-0.057-0.009-0.115-0.013-0.173-0.013-0.111-0.001-0.22 0.017-0.323 0.053-0.096 0.034-0.182 0.084-0.253 0.149-0.073 0.069-0.128 0.15-0.164 0.238-0.041 0.101-0.061 0.207-0.060 0.313-0.002 0.108 0.018 0.216 0.060 0.318 0.035 0.087 0.090 0.167 0.161 0.236 0.067 0.064 0.149 0.114 0.241 0.147 0.095 0.034 0.197 0.051 0.3 0.050 0.059 0.001 0.119-0.003 0.177-0.010 0.096-0.010 0.188-0.039 0.269-0.085 0.041-0.023 0.079-0.049 0.115-0.078 0.015-0.012 0.035-0.020 0.055-0.020z"></path>
<path fill="#afb1b8" style="fill: var(--color3, #afb1b8)" d="M22.776 25.629c0.002 0.134-0.025 0.267-0.078 0.393-0.047 0.114-0.122 0.218-0.219 0.305s-0.214 0.155-0.344 0.2c-0.285 0.094-0.599 0.094-0.884 0-0.129-0.046-0.245-0.114-0.342-0.201-0.097-0.089-0.172-0.194-0.221-0.308-0.105-0.255-0.105-0.533 0-0.787 0.050-0.115 0.125-0.22 0.221-0.31 0.097-0.084 0.214-0.15 0.342-0.193 0.284-0.096 0.6-0.096 0.884 0 0.129 0.046 0.246 0.114 0.343 0.201 0.096 0.088 0.17 0.191 0.22 0.304 0.054 0.127 0.080 0.261 0.078 0.395zM22.47 25.629c0.002-0.107-0.016-0.214-0.055-0.316-0.033-0.087-0.086-0.168-0.156-0.236-0.068-0.065-0.152-0.116-0.246-0.149-0.207-0.069-0.436-0.069-0.643 0-0.094 0.033-0.178 0.084-0.246 0.149-0.071 0.068-0.125 0.149-0.157 0.236-0.074 0.206-0.074 0.426 0 0.632 0.033 0.087 0.086 0.168 0.157 0.236 0.068 0.065 0.152 0.115 0.246 0.148 0.207 0.067 0.435 0.067 0.643 0 0.094-0.033 0.177-0.083 0.246-0.148 0.070-0.069 0.123-0.149 0.156-0.236 0.039-0.102 0.058-0.209 0.055-0.316z"></path>
<path fill="#afb1b8" style="fill: var(--color3, #afb1b8)" d="M25.067 25.96l0.030 0.071c0.012-0.025 0.022-0.048 0.033-0.071 0.011-0.024 0.024-0.047 0.038-0.070l0.743-1.174c0.015-0.020 0.028-0.033 0.042-0.037 0.020-0.005 0.040-0.007 0.061-0.006h0.22v1.909h-0.26v-1.404c0-0.018 0-0.038 0-0.059-0.001-0.022-0.001-0.044 0-0.066l-0.747 1.19c-0.009 0.018-0.025 0.033-0.044 0.043s-0.041 0.016-0.064 0.016h-0.042c-0.023 0-0.045-0.005-0.064-0.016s-0.034-0.026-0.044-0.044l-0.769-1.198c0 0.023 0 0.046 0 0.068s0 0.043 0 0.061v1.404h-0.252v-1.905h0.22c0.021-0.001 0.041 0.001 0.061 0.006 0.018 0.008 0.032 0.021 0.041 0.037l0.759 1.175c0.015 0.022 0.028 0.045 0.038 0.068z"></path>
<path fill="#afb1b8" style="fill: var(--color3, #afb1b8)" d="M27.864 25.865v0.715h-0.291v-1.906h0.649c0.122-0.002 0.244 0.012 0.362 0.042 0.094 0.023 0.181 0.064 0.256 0.119 0.065 0.052 0.114 0.116 0.145 0.187 0.034 0.078 0.051 0.161 0.049 0.244 0.001 0.084-0.017 0.167-0.054 0.244-0.035 0.073-0.089 0.138-0.157 0.191-0.075 0.057-0.162 0.1-0.257 0.126-0.113 0.031-0.232 0.046-0.35 0.044l-0.352-0.005zM27.864 25.66h0.352c0.076 0.001 0.153-0.009 0.225-0.029 0.060-0.018 0.115-0.046 0.163-0.082 0.044-0.035 0.078-0.078 0.099-0.126 0.024-0.051 0.036-0.105 0.035-0.16 0.003-0.053-0.007-0.106-0.029-0.155s-0.057-0.094-0.102-0.13c-0.111-0.075-0.251-0.112-0.391-0.102h-0.352v0.786z"></path>
<path fill="#afb1b8" style="fill: var(--color3, #afb1b8)" d="M31.772 26.583h-0.23c-0.023 0.001-0.046-0.006-0.064-0.018-0.016-0.012-0.029-0.027-0.038-0.044l-0.198-0.461h-0.993l-0.205 0.461c-0.008 0.017-0.020 0.032-0.036 0.043-0.018 0.013-0.042 0.020-0.065 0.019h-0.23l0.872-1.909h0.302l0.884 1.909zM30.333 25.874h0.82l-0.346-0.777c-0.026-0.058-0.048-0.118-0.065-0.179l-0.033 0.1c-0.010 0.030-0.022 0.058-0.032 0.081l-0.343 0.776z"></path>
<path fill="#afb1b8" style="fill: var(--color3, #afb1b8)" d="M33.029 24.682c0.017 0.008 0.032 0.020 0.044 0.034l1.272 1.439c0-0.023 0-0.046 0-0.067s0-0.043 0-0.063v-1.352h0.26v1.909h-0.145c-0.021 0.001-0.041-0.003-0.060-0.011-0.018-0.009-0.034-0.021-0.047-0.035l-1.271-1.438c0.001 0.022 0.001 0.044 0 0.066 0 0.021 0 0.040 0 0.058v1.361h-0.26v-1.909h0.154c0.018-0 0.036 0.003 0.052 0.009z"></path>
<path fill="#afb1b8" style="fill: var(--color3, #afb1b8)" d="M36.748 25.823v0.758h-0.291v-0.758l-0.804-1.15h0.26c0.022-0.001 0.045 0.005 0.063 0.016 0.016 0.012 0.029 0.027 0.039 0.043l0.503 0.742c0.020 0.032 0.038 0.061 0.052 0.088s0.026 0.054 0.036 0.081l0.038-0.082c0.014-0.030 0.031-0.059 0.049-0.087l0.496-0.747c0.010-0.015 0.023-0.028 0.038-0.040 0.017-0.013 0.040-0.020 0.063-0.019h0.263l-0.806 1.155z"></path>
<path fill="#afb1b8" style="fill: var(--color3, #afb1b8)" d="M24.923 21.47c0.127 0.014 0.254 0.025 0.384 0.035 1.962-0.763 3.622-2.011 4.772-3.588s1.74-3.415 1.695-5.282l-2.162-1.879c0.44 1.988 0.234 4.043-0.594 5.935s-2.246 3.547-4.094 4.779z"></path>
<path fill="#afb1b8" style="fill: var(--color3, #afb1b8)" d="M24.151 21.383l0.058 0.010c1.975-1.228 3.482-2.942 4.323-4.921s0.981-4.133 0.4-6.181l-3.080-2.676c1.246 2.2 1.747 4.661 1.446 7.098s-1.393 4.75-3.147 6.67z"></path>
<path fill="#afb1b8" style="fill: var(--color3, #afb1b8)" d="M34.596 14.841c-0.523 2.052-1.794 3.902-3.624 5.276-0.534 0.404-1.111 0.763-1.722 1.074 1.49-0.38 2.859-1.053 4.003-1.966s2.030-2.042 2.592-3.3l-1.249-1.084z"></path>
<path fill="#afb1b8" style="fill: var(--color3, #afb1b8)" d="M34.106 14.539l-1.778-1.545c-0.034 1.762-0.61 3.483-1.669 4.986s-2.562 2.731-4.352 3.559h0.009c0.399-0 0.798-0.021 1.194-0.062 1.673-0.593 3.151-1.537 4.303-2.748s1.94-2.65 2.295-4.189z"></path>
<path fill="#afb1b8" style="fill: var(--color3, #afb1b8)" d="M24.409 6.486l-2.122-1.846c-1.897 0.637-3.528 1.756-4.68 3.212s-1.772 3.179-1.778 4.946v0c0.007 1.952 0.763 3.846 2.149 5.383s3.322 2.628 5.501 3.101c1.946-2.060 3.085-4.605 3.252-7.266s-0.647-5.299-2.323-7.53z"></path>
<path fill="#afb1b8" style="fill: var(--color3, #afb1b8)" d="M39.008 14.255c-0.008-2.316-1.070-4.535-2.955-6.173s-4.439-2.561-7.105-2.567c-1.232-0.001-2.453 0.196-3.602 0.582l12.99 11.286c0.445-0.998 0.673-2.058 0.672-3.128z"></path>
</symbol>
<symbol id="icon-Logo-5" viewBox="0 0 57 32">
<path fill="#afb1b8" style="fill: var(--color3, #afb1b8)" d="M28.493 14.618c-0.236-0.315-0.349-0.686-0.323-1.061v-1.538c0-0.471 0.107-0.83 0.321-1.075s0.581-0.367 1.102-0.366c0.489 0 0.836 0.104 1.042 0.313 0.224 0.266 0.333 0.592 0.308 0.92v0.361h-0.875v-0.366c0.003-0.12-0.005-0.24-0.025-0.358-0.013-0.081-0.057-0.156-0.125-0.213-0.090-0.061-0.203-0.091-0.317-0.083-0.12-0.008-0.239 0.024-0.333 0.088-0.076 0.063-0.127 0.145-0.145 0.235-0.025 0.126-0.037 0.253-0.034 0.38v1.866c-0.014 0.18 0.025 0.36 0.112 0.524 0.044 0.055 0.104 0.099 0.175 0.127s0.149 0.038 0.226 0.029c0.112 0.008 0.223-0.022 0.31-0.084 0.071-0.061 0.117-0.141 0.13-0.227 0.020-0.124 0.030-0.249 0.027-0.374v-0.379h0.875v0.346c0.025 0.342-0.082 0.682-0.303 0.967-0.201 0.228-0.544 0.343-1.047 0.343s-0.884-0.122-1.1-0.375z"></path>
<path fill="#afb1b8" style="fill: var(--color3, #afb1b8)" d="M32.137 14.633c-0.221-0.239-0.332-0.588-0.332-1.050v-1.617c0-0.457 0.11-0.802 0.332-1.037s0.591-0.351 1.109-0.35c0.515 0 0.882 0.117 1.103 0.35 0.221 0.235 0.333 0.58 0.333 1.037v1.617c0 0.457-0.112 0.807-0.337 1.048s-0.591 0.361-1.1 0.361c-0.509 0-0.886-0.122-1.109-0.36zM33.654 14.245c0.079-0.15 0.115-0.314 0.105-0.479v-1.98c0.010-0.161-0.025-0.322-0.103-0.469-0.044-0.057-0.106-0.101-0.179-0.129s-0.152-0.037-0.231-0.027c-0.079-0.009-0.159 0-0.231 0.028s-0.135 0.072-0.18 0.129c-0.080 0.146-0.116 0.308-0.105 0.469v1.99c-0.011 0.165 0.025 0.329 0.105 0.479 0.051 0.050 0.114 0.091 0.185 0.119s0.147 0.042 0.225 0.042c0.078 0 0.154-0.014 0.225-0.042s0.134-0.068 0.185-0.119v-0.009z"></path>
<path fill="#afb1b8" style="fill: var(--color3, #afb1b8)" d="M35.735 10.626h0.942l0.708 2.984 0.725-2.984h0.917l0.092 4.308h-0.678l-0.072-2.994-0.699 2.994h-0.544l-0.725-3.005-0.067 3.005h-0.685l0.085-4.308z"></path>
<path fill="#afb1b8" style="fill: var(--color3, #afb1b8)" d="M40.176 10.626h1.468c0.846 0 1.268 0.408 1.268 1.223 0 0.781-0.445 1.171-1.335 1.17h-0.5v1.915h-0.906l0.005-4.308zM41.43 12.467c0.090 0.010 0.18 0.003 0.266-0.021s0.165-0.063 0.232-0.115c0.104-0.146 0.15-0.316 0.13-0.486 0.005-0.131-0.010-0.263-0.044-0.391-0.013-0.043-0.036-0.083-0.067-0.118s-0.070-0.065-0.114-0.087c-0.126-0.052-0.265-0.076-0.404-0.069h-0.352v1.287h0.352z"></path>
<path fill="#afb1b8" style="fill: var(--color3, #afb1b8)" d="M44.218 10.626h0.973l0.998 4.308h-0.844l-0.197-0.993h-0.868l-0.203 0.993h-0.857l0.998-4.308zM45.050 13.441l-0.339-1.808-0.339 1.808h0.678z"></path>
<path fill="#afb1b8" style="fill: var(--color3, #afb1b8)" d="M46.996 10.626h0.634l1.214 2.457v-2.457h0.752v4.308h-0.603l-1.221-2.565v2.565h-0.777l0.002-4.308z"></path>
<path fill="#afb1b8" style="fill: var(--color3, #afb1b8)" d="M51.357 13.291l-1.009-2.659h0.85l0.616 1.708 0.578-1.708h0.832l-0.997 2.659v1.642h-0.87v-1.642z"></path>
<path fill="#afb1b8" style="fill: var(--color3, #afb1b8)" d="M29.892 16.817v0.225h-0.739v1.75h-0.31v-1.75h-0.743v-0.225h1.792z"></path>
<path fill="#afb1b8" style="fill: var(--color3, #afb1b8)" d="M32.209 18.793h-0.239c-0.024 0.001-0.048-0.005-0.067-0.019-0.018-0.011-0.032-0.027-0.040-0.045l-0.214-0.469h-1.026l-0.214 0.469c-0.006 0.020-0.017 0.038-0.033 0.053-0.019 0.013-0.043 0.020-0.067 0.019h-0.239l0.906-1.976h0.315l0.917 1.968zM30.709 18.059h0.855l-0.362-0.804c-0.027-0.061-0.049-0.123-0.067-0.186-0.013 0.038-0.024 0.073-0.034 0.105l-0.033 0.083-0.359 0.802z"></path>
<path fill="#afb1b8" style="fill: var(--color3, #afb1b8)" d="M33.771 18.599c0.057 0.003 0.114 0.003 0.17 0 0.049-0.004 0.097-0.012 0.145-0.023 0.044-0.009 0.088-0.021 0.13-0.036 0.040-0.014 0.080-0.031 0.121-0.048v-0.444h-0.362c-0.009 0-0.018-0.001-0.026-0.003s-0.016-0.007-0.023-0.012c-0.006-0.004-0.011-0.010-0.014-0.016s-0.005-0.013-0.004-0.020v-0.152h0.703v0.757c-0.057 0.035-0.118 0.067-0.181 0.094-0.065 0.028-0.132 0.050-0.201 0.067-0.074 0.019-0.15 0.032-0.227 0.041-0.088 0.008-0.176 0.013-0.264 0.012-0.156 0.001-0.311-0.024-0.457-0.073-0.136-0.047-0.259-0.117-0.362-0.206-0.101-0.090-0.18-0.196-0.234-0.313-0.057-0.131-0.085-0.27-0.083-0.41-0.002-0.141 0.026-0.281 0.082-0.413 0.052-0.117 0.132-0.224 0.234-0.313 0.103-0.089 0.227-0.159 0.362-0.205 0.155-0.050 0.32-0.075 0.486-0.074 0.084-0 0.169 0.006 0.252 0.017 0.074 0.010 0.146 0.027 0.216 0.050 0.063 0.021 0.124 0.047 0.181 0.078 0.056 0.031 0.108 0.065 0.158 0.103l-0.087 0.122c-0.007 0.011-0.017 0.021-0.029 0.027s-0.027 0.010-0.041 0.010c-0.020-0.001-0.040-0.006-0.056-0.016-0.027-0.013-0.056-0.028-0.089-0.047-0.038-0.021-0.079-0.039-0.121-0.053-0.054-0.019-0.11-0.033-0.167-0.044-0.076-0.012-0.153-0.018-0.23-0.017-0.12-0.001-0.238 0.017-0.35 0.055-0.101 0.035-0.192 0.088-0.266 0.156-0.075 0.071-0.132 0.155-0.169 0.246-0.081 0.214-0.081 0.445 0 0.659 0.040 0.093 0.101 0.178 0.181 0.249 0.074 0.068 0.164 0.121 0.265 0.156 0.115 0.034 0.237 0.047 0.359 0.039z"></path>
<path fill="#afb1b8" style="fill: var(--color3, #afb1b8)" d="M36.659 18.567h0.989v0.225h-1.292v-1.976h0.31l-0.007 1.75z"></path>
<path fill="#afb1b8" style="fill: var(--color3, #afb1b8)" d="M38.678 18.792h-0.31v-1.976h0.31v1.976z"></path>
<path fill="#afb1b8" style="fill: var(--color3, #afb1b8)" d="M39.83 16.826c0.018 0.009 0.034 0.021 0.047 0.036l1.324 1.489c-0.002-0.023-0.002-0.047 0-0.070 0-0.022 0-0.044 0-0.064v-1.408h0.27v1.984h-0.156c-0.023 0.002-0.046-0.002-0.067-0.011-0.019-0.010-0.035-0.023-0.049-0.038l-1.323-1.488c0 0.023 0 0.045 0 0.067s0 0.042 0 0.061v1.408h-0.259v-1.976h0.161c0.017 0 0.035 0.003 0.051 0.009z"></path>
<path fill="#afb1b8" style="fill: var(--color3, #afb1b8)" d="M43.753 16.817v0.217h-1.098v0.652h0.89v0.21h-0.89v0.674h1.098v0.217h-1.417v-1.971h1.417z"></path>
<path fill="#afb1b8" style="fill: var(--color3, #afb1b8)" d="M11.286 4.616l13.757 3.372v11.818l-13.757-3.371v-11.819zM10.404 3.609v13.401l15.52 3.806v-13.399l-15.52-3.807z"></path>
<path fill="#afb1b8" style="fill: var(--color3, #afb1b8)" d="M18.722 27.036l-15.522-3.809v-13.399l15.522 3.807v13.401z"></path>
<path fill="#afb1b8" style="fill: var(--color3, #afb1b8)" d="M10.661 4.465l13.578 3.33-5.774 4.987-13.58-3.332 5.776-4.985zM10.404 3.609l-7.204 6.219 15.522 3.807 7.202-6.219-15.52-3.807z"></path>
<path fill="#afb1b8" style="fill: var(--color3, #afb1b8)" d="M19.595 26.282l6.329-5.465-6.329-1.553v7.018z"></path>
</symbol>
<symbol id="icon-Logo" viewBox="0 0 57 32">
<path fill="#afb1b8" style="fill: var(--color3, #afb1b8)" d="M20.267 3.733l3.738 3.538-6.938-0.004v17.166h18.133v-6.564l3.733 3.534v-17.671h-18.667zM35.036 17.455l-10.597-10.032h10.597v10.032zM31.746 21.923h-11.81v-11.545h0.835v10.764h10.975v0.782zM22.725 26.72l-0.436 0.898-0.436-0.898h-0.366l0.637 1.198v0.698h0.331v-0.698l0.635-1.198h-0.365zM23.273 28.615l0.154-0.441h0.734l0.155 0.441h0.344l-0.717-1.896h-0.296l-0.716 1.896h0.342zM23.794 27.122l0.275 0.786h-0.549l0.275-0.786zM25.531 27.863c-0.048 0.073-0.072 0.153-0.072 0.241 0 0.16 0.056 0.29 0.168 0.389s0.263 0.148 0.451 0.148 0.349-0.051 0.484-0.152l0.107 0.126h0.367l-0.279-0.329c0.109-0.149 0.164-0.341 0.164-0.574h-0.275c0 0.128-0.026 0.243-0.079 0.348l-0.366-0.432 0.129-0.094c0.091-0.066 0.157-0.132 0.197-0.198s0.060-0.14 0.060-0.219c0-0.12-0.044-0.22-0.133-0.301s-0.201-0.122-0.339-0.122c-0.153 0-0.274 0.043-0.365 0.13s-0.135 0.203-0.135 0.352c0 0.061 0.014 0.124 0.043 0.189s0.081 0.144 0.155 0.237c-0.141 0.101-0.235 0.188-0.283 0.262zM26.386 28.282c-0.093 0.071-0.193 0.107-0.299 0.107-0.095 0-0.17-0.027-0.227-0.082s-0.085-0.126-0.085-0.214c0-0.102 0.052-0.192 0.156-0.271l0.040-0.029 0.414 0.488zM26.046 27.442c-0.089-0.11-0.134-0.202-0.134-0.275 0-0.063 0.018-0.116 0.055-0.158s0.085-0.063 0.147-0.063c0.057 0 0.105 0.018 0.142 0.053s0.056 0.077 0.056 0.126c0 0.075-0.027 0.136-0.081 0.184l-0.040 0.033-0.145 0.099zM29.132 28.472c0.13-0.114 0.205-0.272 0.224-0.474h-0.328c-0.017 0.135-0.059 0.232-0.124 0.29s-0.162 0.087-0.292 0.087c-0.142 0-0.249-0.054-0.323-0.161s-0.109-0.264-0.109-0.469v-0.168c0.002-0.202 0.041-0.355 0.117-0.46s0.188-0.158 0.331-0.158c0.123 0 0.217 0.030 0.28 0.091s0.104 0.158 0.12 0.294h0.328c-0.021-0.207-0.095-0.368-0.223-0.482s-0.296-0.171-0.505-0.171c-0.155 0-0.293 0.037-0.411 0.111s-0.209 0.179-0.272 0.315c-0.063 0.136-0.095 0.294-0.095 0.473v0.177c0.003 0.174 0.035 0.328 0.098 0.46s0.151 0.234 0.266 0.306c0.115 0.071 0.249 0.107 0.4 0.107 0.216 0 0.389-0.056 0.52-0.169zM31.068 28.206c0.064-0.141 0.096-0.304 0.096-0.49v-0.105c-0.001-0.185-0.034-0.347-0.099-0.486s-0.158-0.247-0.277-0.32c-0.119-0.075-0.256-0.112-0.41-0.112s-0.292 0.038-0.411 0.113c-0.119 0.075-0.211 0.183-0.277 0.324s-0.098 0.305-0.098 0.49v0.107c0.001 0.181 0.034 0.342 0.099 0.48s0.159 0.246 0.279 0.322c0.121 0.075 0.258 0.112 0.411 0.112 0.155 0 0.293-0.037 0.411-0.112s0.212-0.183 0.276-0.323zM30.716 27.135c0.080 0.112 0.12 0.273 0.12 0.483v0.099c0 0.214-0.040 0.376-0.119 0.487s-0.19 0.167-0.336 0.167c-0.144 0-0.257-0.057-0.339-0.171s-0.121-0.275-0.121-0.483v-0.109c0.002-0.204 0.043-0.362 0.122-0.473s0.192-0.168 0.335-0.168c0.146 0 0.258 0.056 0.337 0.168z"></path>
</symbol>
<symbol id="icon-smartphone" viewBox="0 0 20 32">
<path d="M17 0h-14c-1.654 0-3 1.346-3 3v26c0 1.654 1.346 3 3 3h14c1.654 0 3-1.346 3-3v-26c0-1.654-1.346-3-3-3zM3 2h14c0.552 0 1 0.448 1 1v21h-16v-21c0-0.552 0.448-1 1-1zM17 30h-14c-0.552 0-1-0.448-1-1v-3h16v3c0 0.552-0.448 1-1 1z"></path>
<path d="M4.707 27.478c0.391 0.365 0.391 0.956 0 1.321s-1.024 0.365-1.414 0c-0.391-0.365-0.391-0.956 0-1.321s1.024-0.365 1.414 0z"></path>
</symbol>
<symbol id="icon-twitter-1" viewBox="0 0 32 32">
<path d="M32 6.078c-1.19 0.522-2.458 0.868-3.78 1.036 1.36-0.812 2.398-2.088 2.886-3.626-1.268 0.756-2.668 1.29-4.16 1.588-1.204-1.282-2.92-2.076-4.792-2.076-3.632 0-6.556 2.948-6.556 6.562 0 0.52 0.044 1.020 0.152 1.496-5.454-0.266-10.28-2.88-13.522-6.862-0.566 0.982-0.898 2.106-0.898 3.316 0 2.272 1.17 4.286 2.914 5.452-1.054-0.020-2.088-0.326-2.964-0.808 0 0.020 0 0.046 0 0.072 0 3.188 2.274 5.836 5.256 6.446-0.534 0.146-1.116 0.216-1.72 0.216-0.42 0-0.844-0.024-1.242-0.112 0.85 2.598 3.262 4.508 6.13 4.57-2.232 1.746-5.066 2.798-8.134 2.798-0.538 0-1.054-0.024-1.57-0.090 2.906 1.874 6.35 2.944 10.064 2.944 12.072 0 18.672-10 18.672-18.668 0-0.29-0.010-0.57-0.024-0.848 1.302-0.924 2.396-2.078 3.288-3.406z"></path>
</symbol>
</defs>
</svg>
